<svg width="22" height="20" viewBox="0 0 22 20" fill="none" xmlns="http://www.w3.org/2000/svg">
<g id="Group 123637">
<g id="Vector">
<path fill-rule="evenodd" clip-rule="evenodd" d="M14.8791 2.37808H9.56455V3.26385L7.79303 3.26385V4.14961H6.90727V5.03538L6.02152 5.03538V5.92114H5.13576V7.69267H4.25V13.0073H5.13576L5.13576 14.7788H6.02152V15.6645H6.90727L6.90727 16.5503H7.79303V17.4361H9.56455V18.3218H14.8791V17.4361H16.6506V16.5503H17.5364V15.6645H18.4221V14.7788H19.3079V13.0073H20.1936V7.69267H19.3079V5.92114H18.4221V5.03538L17.5364 5.03538V4.14961H16.6506V3.26385L14.8791 3.26385V2.37808ZM14.8791 3.26385V4.14961H16.6506V5.03538H17.5364V5.92114H18.4221V7.69267H19.3079V13.0073H18.4221V14.7788H17.5364V15.6645H16.6506V16.5503H14.8791V17.4361H9.56455V16.5503H7.79303V15.6645H6.90727V14.7788H6.02152V13.0073H5.13576L5.13576 7.69267H6.02152V5.92114H6.90727L6.90727 5.03538H7.79303V4.14961H9.56455V3.26385H14.8791Z" fill="#252300"/>
<path d="M14.8791 4.14961V3.26385H9.56455V4.14961H7.79303V5.03538H6.90727L6.90727 5.92114H6.02152V7.69267H5.13576L5.13576 13.0073H6.02152V14.7788H6.90727V15.6645H7.79303V16.5503H9.56455V17.4361H14.8791V16.5503H16.6506V15.6645H17.5364V14.7788H18.4221V13.0073H19.3079V7.69267H18.4221V5.92114H17.5364V5.03538H16.6506V4.14961H14.8791Z" fill="#FFE300"/>
<path d="M10.2352 8.9826H11.0297V9.77708H10.2352V8.9826Z" fill="#252300"/>
<path d="M13.4129 10.5715H14.2074V11.3659H13.4129V10.5715Z" fill="#252300"/>
<path d="M14.2074 8.98259V8.18821H12.6185V7.39372H11.8241V8.18821H11.0297V8.98259H11.8241V9.77711H11.0297V10.5715H11.8241V11.366H10.2352V12.1605H11.8241V12.9549H12.6185V12.1605H13.4129V11.366H12.6185V10.5715H13.4129V9.77711H12.6185V8.98259H14.2074Z" fill="#252300"/>
</g>
<path id="Vector_2" d="M20.6319 2.61079L20.6274 0.868743L18.8853 0.873303L18.8899 2.61535L20.6319 2.61079Z" fill="#252300"/>
<path id="Vector_3" d="M4.41318 19.1267L4.40862 17.3847L2.66659 17.3892L2.67115 19.1313L4.41318 19.1267Z" fill="#252300"/>
<path id="Vector_4" d="M2.7706 16.6641L2.76604 14.9221L1.02401 14.9266L1.02857 16.6687L2.7706 16.6641Z" fill="#252300"/>
</g>
</svg>
