<svg width="85" height="19" viewBox="0 0 85 19" fill="none" xmlns="http://www.w3.org/2000/svg">
<g id="Name">
<path d="M6.9064 15.4503C2.64944 15.4503 0 12.6024 0 8.04779V8.02795C0 3.47329 2.66929 0.635315 6.9064 0.635315C11.1534 0.635315 13.8128 3.48321 13.8128 8.02795V8.04779C13.8128 12.6024 11.1634 15.4503 6.9064 15.4503ZM6.9064 12.9101C9.28792 12.9101 10.7565 11.0148 10.7565 8.04779V8.02795C10.7565 5.04112 9.25815 3.1756 6.9064 3.1756C4.56458 3.1756 3.05628 5.0312 3.05628 8.02795V8.04779C3.05628 11.0445 4.55465 12.9101 6.9064 12.9101Z" fill="white"/>
<path d="M15.4997 18.6753V4.56482H18.3972V6.42042H18.4667C19.0422 5.13043 20.2032 4.34651 21.7115 4.34651C24.4106 4.34651 26.0578 6.4105 26.0578 9.87362V9.88355C26.0578 13.3367 24.4106 15.4206 21.7512 15.4206C20.233 15.4206 19.0323 14.6466 18.4568 13.3864H18.3972V18.6753H15.4997ZM20.7589 13.0192C22.1977 13.0192 23.1107 11.8185 23.1107 9.88355V9.87362C23.1107 7.92872 22.1977 6.74788 20.7589 6.74788C19.3498 6.74788 18.3873 7.95849 18.3873 9.88355V9.89347C18.3873 11.8086 19.3498 13.0192 20.7589 13.0192Z" fill="white"/>
<path d="M32.4085 15.4206C29.1538 15.4206 27.1791 13.307 27.1791 9.90339V9.89347C27.1791 6.50973 29.1736 4.34651 32.2894 4.34651C35.4052 4.34651 37.3601 6.46011 37.3601 9.67516V10.5682H30.0369C30.0667 12.2651 30.9895 13.2574 32.468 13.2574C33.6588 13.2574 34.3832 12.6024 34.5916 12.0071L34.6114 11.9475H37.2708L37.241 12.0567C36.9135 13.6245 35.4449 15.4206 32.4085 15.4206ZM32.339 6.50973C31.1483 6.50973 30.2552 7.30357 30.0667 8.7424H34.5816C34.403 7.2738 33.5397 6.50973 32.339 6.50973Z" fill="white"/>
<path d="M38.8584 15.2023V4.56482H41.756V6.31127H41.8155C42.3613 5.09074 43.4528 4.34651 45.0603 4.34651C47.4021 4.34651 48.7318 5.84489 48.7318 8.33556V15.2023H45.8343V8.93094C45.8343 7.54172 45.1794 6.74788 43.8795 6.74788C42.5796 6.74788 41.756 7.70049 41.756 9.08971V15.2023H38.8584Z" fill="white"/>
<path d="M50.8157 15.2023V0.88339H57.0473C59.7463 0.88339 61.4432 2.27261 61.4432 4.47551V4.49536C61.4432 6.06319 60.2524 7.4028 58.6747 7.61118V7.67072C60.6692 7.81956 62.108 9.22862 62.108 11.1041V11.1239C62.108 13.6344 60.2127 15.2023 57.1564 15.2023H50.8157ZM56.2733 3.10614H53.8124V6.86696H55.9061C57.5931 6.86696 58.496 6.16242 58.496 4.92205V4.9022C58.496 3.76106 57.6724 3.10614 56.2733 3.10614ZM56.2634 8.90117H53.8124V12.9696H56.3924C58.1091 12.9696 59.0517 12.2651 59.0517 10.9354V10.9155C59.0517 9.6057 58.0991 8.90117 56.2634 8.90117Z" fill="white"/>
<path d="M68.4488 15.4206C65.2139 15.4206 63.1797 13.3467 63.1797 9.88355V9.8637C63.1797 6.44027 65.2635 4.34651 68.4389 4.34651C71.6242 4.34651 73.7179 6.42042 73.7179 9.8637V9.88355C73.7179 13.3566 71.6639 15.4206 68.4488 15.4206ZM68.4587 13.1482C69.8678 13.1482 70.7708 11.9575 70.7708 9.88355V9.8637C70.7708 7.80964 69.848 6.61888 68.4389 6.61888C67.0397 6.61888 66.1268 7.80964 66.1268 9.8637V9.88355C66.1268 11.9674 67.0298 13.1482 68.4587 13.1482Z" fill="white"/>
<path d="M73.7378 15.2023L77.0719 9.90339L73.7576 4.56482H77.0223L78.9374 8.15694H78.9969L80.8823 4.56482H84.0378L80.7136 9.82401L84.0081 15.2023H80.8625L78.8382 11.5109H78.7786L76.7841 15.2023H73.7378Z" fill="white"/>
</g>
</svg>
